<?xml version="1.0" encoding="UTF-8"?>
<svg id="_レイヤー_1" xmlns="http://www.w3.org/2000/svg" version="1.1" viewBox="0 0 720 576">
  <!-- Generator: Adobe Illustrator 29.4.0, SVG Export Plug-In . SVG Version: 2.1.0 Build 152)  -->
  <defs>
    <style>
      .st0 {
        fill: #e0e5d9;
      }
    </style>
  </defs>
  <path class="st0" d="M101.3,192.94c18.75,0,37.51-.02,56.26,0,11.81,0,23.63.09,35.44.12,6.06.02,8.54-1.86,10.4-7.64,18.75-58.2,37.51-116.39,56.28-174.59,1.31-4.05,4.15-6.28,7.98-6.33,3.82-.05,6.88,2.27,8.21,6.33,14.58,44.53,29.14,89.06,43.71,133.59,4.58,14.01,9.18,28.02,13.8,42.02,1.27,3.86,4.19,5.95,8.25,5.98,8.22.06,16.44.11,24.65.13,30.44.05,60.88.09,91.32.13,22.86.04,45.72.08,68.58.13,4.31,0,7.41,2.08,8.64,5.76,1.23,3.67-.03,7.2-3.54,9.73-49.3,35.55-98.6,71.1-147.9,106.65-2.09,1.5-4.51,2.85-5.07,5.54-.4,1.92-.52,4.15.06,5.98,6.4,20.09,12.95,40.13,19.48,60.19,12.63,38.82,25.28,77.64,37.92,116.47,1.33,4.08.26,7.63-2.95,9.92-3.14,2.24-6.76,2.07-10.34-.5-50.09-35.98-100.19-71.97-150.28-107.95-4.28-3.08-7.53-3.09-11.79.02-48.99,35.76-98,71.5-146.93,107.34-5.27,3.86-10.43,2.02-12.73-1.27-1.66-2.37-1.93-4.9-1.01-7.68,6.01-18.26,11.95-36.55,17.94-54.82,13.15-40.14,26.31-80.28,39.46-120.42,1.45-4.42.27-7.77-3.74-10.69-49.66-36.14-99.33-72.29-149-108.43-4.13-3-5.43-6.84-3.58-10.8,1.5-3.22,4.05-4.89,7.62-4.9,5.52-.02,11.05,0,16.57,0h76.29,0ZM193.27,242.01c-11.95,0-23.89.02-35.84-.02-2.23,0-4.17.6-5.81,2.1-4.14,3.81-3.65,9.96,1.13,13.44,19.14,13.95,38.3,27.88,57.45,41.82,3.86,2.81,4.9,5.98,3.46,10.4-7.29,22.3-14.59,44.59-21.88,66.89-1.38,4.23-.36,7.84,2.83,10.14,3.25,2.35,6.94,2.22,10.51-.39,18.56-13.55,37.12-27.1,55.67-40.66,4.79-3.5,7.66-3.5,12.54.01,19.02,13.68,38.05,27.34,57.08,41.01,3.64,2.61,7.32,2.74,10.53.42,3.19-2.31,4.22-5.93,2.85-10.12-7.32-22.49-14.63-44.98-21.95-67.48-1.56-4.8-.54-7.94,3.53-10.88,19.05-13.74,38.11-27.48,57.15-41.24,3.56-2.57,4.74-6.08,3.45-9.93-1.22-3.61-4.24-5.63-8.48-5.66-7-.05-14-.11-21-.12-16.44-.04-32.88-.05-49.32-.07-5.09,0-7.69-1.85-9.27-6.68-7.31-22.29-14.61-44.59-21.95-66.87-.41-1.25-1-2.55-1.85-3.54-4.28-4.97-12.34-3.27-14.38,3.02-7.31,22.56-14.57,45.14-21.86,67.71-1.5,4.63-4.28,6.67-9.13,6.67h-35.45v.03Z"/>
  <path class="st0" d="M677.06,252.87h33.72c4.51,0,7.53,2,8.77,5.79s-.03,7.14-3.73,9.82c-38.63,27.86-77.26,55.72-115.89,83.57-11.09,8-22.18,15.99-33.27,23.99-3.87,2.8-5.04,6.19-3.61,10.57,15.25,46.87,30.51,93.75,45.76,140.62,3.91,12.01,7.81,24.02,11.69,36.03,1.3,4.03.27,7.46-2.86,9.75-3.11,2.28-6.7,2.21-10.16-.27-18.62-13.36-37.23-26.72-55.82-40.13-.67-.49-1.15-1.43-1.42-2.26-2.3-7.27-4.46-14.58-6.81-21.83-13.99-43.1-28.02-86.19-42.04-129.29-2.04-6.28-4.04-12.57-6.17-18.82-.46-1.36-.16-2,.96-2.8,46.35-33.39,92.69-66.8,139.02-100.22.78-.56,1.68-1.04,2.29-1.75,2.14-2.5,4.75-2.99,7.98-2.91,10.53.23,21.06.09,31.6.09v.06h-.01Z"/>
  <path class="st0" d="M585.2,222.23h31.4c4.39,0,7.38,2.02,8.6,5.74,1.23,3.75.02,7.14-3.54,9.71-35.71,25.76-71.42,51.51-107.13,77.27-14.06,10.14-28.11,20.27-42.17,30.41-3.99,2.88-5.09,6.16-3.55,10.91,6.81,20.97,13.65,41.93,20.47,62.9,12.31,37.85,24.63,75.7,36.93,113.55,1.24,3.82.15,7.37-2.87,9.6-3.05,2.25-6.74,2.26-10.02-.1-17.37-12.45-34.73-24.92-52.07-37.41-.47-.34-.93-.89-1.09-1.43-2.03-6.94-3.81-13.96-6.03-20.83-13.25-40.98-26.6-81.93-39.92-122.9-3.09-9.51-6.14-19.03-9.33-28.51-.49-1.47-.2-2.12.96-2.96,37.45-26.97,74.87-53.97,112.3-80.96,9.11-6.57,18.23-13.12,27.32-19.73,1.6-1.17,3.18-2.43,4.51-3.88,1.1-1.21,2.22-1.63,3.82-1.62,10.47.07,20.93.03,31.4.03v.21Z"/>
  <path class="st0" d="M408.34,168.79h-12.29c-13.67-.04-27.34-.12-41.02-.08-1.73,0-2.55-.4-3.12-2.15-6.94-21.46-13.98-42.89-20.95-64.33-.25-.78-.27-1.79-.03-2.57,6.35-19.9,12.75-39.78,19.16-59.66,1.24-3.84,4.23-6.05,7.98-6.07,3.89-.02,6.78,2.13,8.1,6.14,12.95,39.51,25.89,79.03,38.84,118.55,1.07,3.27,2.14,6.55,3.32,10.18h0Z"/>
  <path class="st0" d="M311.73,462.5c-7.1,5.19-13.98,10.22-20.87,15.24-29.07,21.22-58.13,42.45-87.2,63.67-4.26,3.11-8.48,2.92-11.77-.51-2.25-2.35-2.84-5.14-1.86-8.19,2.71-8.42,5.49-16.81,8.24-25.21,3.82-11.69,7.62-23.39,11.51-35.06.33-1,1.11-2.03,1.96-2.65,17.68-12.99,35.41-25.91,53.12-38.88.96-.7,1.63-1.05,2.81-.2,14.34,10.38,28.74,20.69,43.12,31.02.25.18.49.39.94.76h0Z"/>
  <path class="st0" d="M492.64,168.86h-4.42c-17.59-.02-35.19-.06-52.78-.03-1.46,0-2.14-.4-2.59-1.81-3.03-9.46-6.19-18.88-9.2-28.34-.34-1.06-.32-2.43.03-3.49,6.83-21.37,13.74-42.71,20.63-64.05,1.37-4.25,4.32-6.63,8.19-6.63s6.8,2.42,8.19,6.65c10.43,31.86,20.87,63.71,31.3,95.57.21.66.4,1.32.65,2.15v-.02Z"/>
  <path class="st0" d="M332.28,477.18c15.99,11.49,31.98,22.97,48.11,34.57-.51.44-.86.79-1.25,1.08-27.11,19.8-54.21,39.6-81.33,59.38-3.79,2.77-7.79,2.78-10.93.01-2.87-2.53-3.57-5.68-2.41-9.26,3.74-11.45,7.5-22.9,11.25-34.35,3.39-10.35,6.78-20.71,10.22-31.05.28-.85.81-1.79,1.51-2.31,8-5.92,16.05-11.76,24.08-17.63.2-.15.42-.26.73-.45h.02Z"/>
</svg>