<svg width="32" height="30" viewBox="0 0 32 30" fill="none" xmlns="http://www.w3.org/2000/svg">
<path d="M30.7534 10H26.1263L25.1403 4.175C24.9416 3.29367 24.5052 2.48199 23.8775 1.82614C23.2498 1.17029 22.4542 0.694743 21.5752 0.45C20.6917 0.170448 19.7719 0.0188748 18.8445 0H13.1808C12.2534 0.0188748 11.3336 0.170448 10.4501 0.45C9.57104 0.694743 8.77543 1.17029 8.14774 1.82614C7.52004 2.48199 7.08368 3.29367 6.885 4.175L5.89891 10H1.27188C1.07274 9.99881 0.876133 10.0441 0.698073 10.1323C0.520012 10.2205 0.365539 10.349 0.247239 10.5074C0.128938 10.6658 0.050156 10.8496 0.017312 11.0438C-0.0155319 11.238 -0.00150881 11.4372 0.0582384 11.625L4.81169 27.375C5.05369 28.1359 5.53474 28.8006 6.18495 29.2727C6.83517 29.7447 7.62067 29.9995 8.42734 30H23.5979C24.4003 29.9942 25.1801 29.737 25.8252 29.2653C26.4704 28.7936 26.9476 28.1318 27.1883 27.375L31.9417 11.625C32.0009 11.4392 32.0152 11.2423 31.9837 11.05C31.9522 10.8577 31.8757 10.6753 31.7602 10.5174C31.6448 10.3596 31.4936 10.2306 31.3188 10.1407C31.144 10.0509 30.9504 10.0027 30.7534 10ZM8.47791 10L9.38814 4.575C9.48793 4.13206 9.7194 3.72875 10.0528 3.4169C10.3862 3.10505 10.8064 2.89892 11.2592 2.825C11.8812 2.63 12.5285 2.5225 13.1808 2.5H18.8445C19.5069 2.52167 20.1559 2.63 20.7914 2.825C21.2442 2.89892 21.6643 3.10505 21.9977 3.4169C22.3311 3.72875 22.5626 4.13206 22.6624 4.575L23.5473 10H8.37677H8.47791Z" fill="#DDDDDD"/>
</svg>
