<svg width="46" height="20" viewBox="0 0 46 20" fill="none" xmlns="http://www.w3.org/2000/svg">
<path d="M15.6528 19.52L15.9722 14.7L15.6528 4.24C15.6395 4.10667 15.5896 3.99333 15.503 3.9C15.4165 3.80667 15.3067 3.76 15.1736 3.76C15.0538 3.76 14.9473 3.80667 14.8542 3.9C14.761 3.99333 14.7144 4.10667 14.7144 4.24L14.4349 14.7L14.7144 19.52C14.7277 19.6533 14.7776 19.7633 14.8641 19.85C14.9507 19.9367 15.0538 19.98 15.1736 19.98C15.4664 19.98 15.6262 19.8267 15.6528 19.52ZM21.5625 18.94L21.7821 14.72L21.5425 3C21.5425 2.78667 21.456 2.62667 21.283 2.52C21.1765 2.45333 21.07 2.42 20.9635 2.42C20.8571 2.42 20.7506 2.45333 20.6441 2.52C20.4711 2.62667 20.3845 2.78667 20.3845 3L20.3646 3.12L20.1649 14.7C20.1649 14.7133 20.2381 16.2867 20.3845 19.42V19.44C20.3845 19.5733 20.4245 19.6867 20.5043 19.78C20.6241 19.9267 20.7772 20 20.9635 20C21.11 20 21.2431 19.94 21.3628 19.82C21.4826 19.7267 21.5425 19.5933 21.5425 19.42L21.5625 18.94ZM0.698785 12.14L1.09809 14.7L0.698785 17.22C0.672164 17.34 0.612269 17.4 0.519097 17.4C0.425926 17.4 0.36603 17.34 0.33941 17.22L0 14.7L0.33941 12.14C0.36603 12.02 0.425926 11.96 0.519097 11.96C0.612269 11.96 0.672164 12.02 0.698785 12.14ZM2.4158 10.56L2.9349 14.7L2.4158 18.76C2.38918 18.88 2.32263 18.94 2.21615 18.94C2.09635 18.94 2.03646 18.8733 2.03646 18.74L1.57726 14.7L2.03646 10.56C2.03646 10.44 2.09635 10.38 2.21615 10.38C2.32263 10.38 2.38918 10.44 2.4158 10.56ZM4.2526 9.8L4.75174 14.7L4.2526 19.44C4.2526 19.5867 4.1794 19.66 4.03299 19.66C3.89988 19.66 3.82002 19.5867 3.7934 19.44L3.37413 14.7L3.7934 9.8C3.82002 9.64 3.89988 9.56 4.03299 9.56C4.1794 9.56 4.2526 9.64 4.2526 9.8ZM6.12934 9.66L6.58854 14.7L6.12934 19.58C6.10272 19.7533 6.00955 19.84 5.84983 19.84C5.67679 19.84 5.59028 19.7533 5.59028 19.58L5.17101 14.7L5.59028 9.66C5.59028 9.48667 5.67679 9.4 5.84983 9.4C6.00955 9.4 6.10272 9.48667 6.12934 9.66ZM8.00608 10.02L8.42535 14.7L8.00608 19.62C7.97946 19.8333 7.87297 19.94 7.68663 19.94C7.60677 19.94 7.53689 19.91 7.477 19.85C7.4171 19.79 7.38715 19.7133 7.38715 19.62L6.98785 14.7L7.38715 10.02C7.38715 9.94 7.4171 9.87 7.477 9.81C7.53689 9.75 7.60677 9.72 7.68663 9.72C7.87297 9.72 7.97946 9.82 8.00608 10.02ZM9.88281 7.1L10.3021 14.7L9.88281 19.62C9.88281 19.7133 9.84954 19.7967 9.78299 19.87C9.71644 19.9433 9.63657 19.98 9.5434 19.98C9.33044 19.98 9.21065 19.86 9.18403 19.62L8.82465 14.7L9.18403 7.1C9.21065 6.86 9.33044 6.74 9.5434 6.74C9.63657 6.74 9.71644 6.77667 9.78299 6.85C9.84954 6.92333 9.88281 7.00667 9.88281 7.1ZM11.7595 5.38L12.1389 14.74L11.7595 19.62C11.7595 19.7267 11.7229 19.8167 11.6497 19.89C11.5765 19.9633 11.4867 20 11.3802 20C11.1406 20 11.0075 19.8733 10.9809 19.62L10.6615 14.74L10.9809 5.38C11.0075 5.12667 11.1406 5 11.3802 5C11.4867 5 11.5765 5.03667 11.6497 5.11C11.7229 5.18333 11.7595 5.27333 11.7595 5.38ZM13.7161 4.58L14.0755 14.7L13.7161 19.54C13.6895 19.82 13.5431 19.96 13.2769 19.96C13.024 19.96 12.8843 19.82 12.8576 19.54L12.5382 14.7L12.8576 4.58C12.8576 4.46 12.9009 4.35667 12.9874 4.27C13.0739 4.18333 13.1704 4.14 13.2769 4.14C13.3967 4.14 13.4965 4.18333 13.5764 4.27C13.6562 4.35667 13.7028 4.46 13.7161 4.58ZM17.5894 4.5L17.8889 14.7L17.5894 19.48C17.5894 19.6133 17.5395 19.73 17.4397 19.83C17.3398 19.93 17.2234 19.98 17.0903 19.98C16.9572 19.98 16.844 19.9333 16.7509 19.84C16.6577 19.7467 16.6045 19.6267 16.5911 19.48L16.3116 14.7L16.5911 4.5C16.5911 4.35333 16.6411 4.23333 16.7409 4.14C16.8407 4.04667 16.9572 4 17.0903 4C17.2234 4 17.3398 4.04667 17.4397 4.14C17.5395 4.23333 17.5894 4.35333 17.5894 4.5ZM19.566 4.88L19.8455 14.72L19.566 19.44C19.566 19.5867 19.5127 19.7133 19.4062 19.82C19.2998 19.9267 19.1733 19.98 19.0269 19.98C18.8805 19.98 18.7541 19.9267 18.6476 19.82C18.5411 19.7133 18.4812 19.5867 18.4679 19.44L18.2283 14.72L18.4679 4.88C18.4812 4.72 18.5411 4.58667 18.6476 4.48C18.7541 4.37333 18.8805 4.32 19.0269 4.32C19.1733 4.32 19.2964 4.37333 19.3963 4.48C19.4961 4.58667 19.5527 4.72 19.566 4.88ZM23.7986 14.72L23.5191 19.34C23.5191 19.5133 23.4592 19.66 23.3394 19.78C23.2196 19.9 23.0732 19.96 22.9002 19.96C22.7271 19.96 22.5807 19.9 22.4609 19.78C22.3411 19.66 22.2746 19.5133 22.2613 19.34L22.1415 17.06L22.0217 14.72L22.2613 2V1.94C22.2879 1.74 22.3678 1.58 22.5009 1.46C22.6207 1.36667 22.7538 1.32 22.9002 1.32C23.0067 1.32 23.1065 1.35333 23.1997 1.42C23.386 1.52667 23.4925 1.7 23.5191 1.94L23.7986 14.72ZM46 14.34C46 15.9 45.4476 17.23 44.3429 18.33C43.2381 19.43 41.9071 19.98 40.3498 19.98H24.6571C24.4841 19.9533 24.3377 19.88 24.2179 19.76C24.0981 19.64 24.0382 19.4933 24.0382 19.32V1.34C24.0382 1.03333 24.2245 0.813333 24.5972 0.68C25.7286 0.226667 26.9332 0 28.2109 0C30.8064 0 33.0558 0.876667 34.9592 2.63C36.8626 4.38333 37.9274 6.54 38.1536 9.1C38.8591 8.80667 39.5911 8.66 40.3498 8.66C41.9071 8.66 43.2381 9.21333 44.3429 10.32C45.4476 11.4267 46 12.7667 46 14.34Z" fill="#DDDDDD"/>
</svg>
