<svg width="35" height="34" viewBox="0 0 35 34" fill="none" xmlns="http://www.w3.org/2000/svg">
<path d="M17.5 0C20.6749 0 23.603 0.779017 26.2842 2.33705C28.9654 3.89508 31.0883 6.00902 32.653 8.67885C34.2177 11.3487 35 14.2643 35 17.4258C35 21.2225 33.8873 24.6373 31.6618 27.6702C29.4363 30.7031 26.5614 32.8019 23.0371 33.9666C22.627 34.0423 22.3231 33.9893 22.1257 33.8078C21.9282 33.6263 21.8294 33.3994 21.8294 33.1271C21.8294 33.0817 21.8332 32.5031 21.8408 31.3913C21.8484 30.2795 21.8522 29.2623 21.8522 28.3396C21.8522 26.8723 21.4572 25.7983 20.6673 25.1176C21.5332 25.0268 22.3117 24.8907 23.0029 24.7092C23.6941 24.5277 24.4081 24.2327 25.1449 23.8243C25.8816 23.4159 26.4969 22.9129 26.9906 22.3154C27.4843 21.7179 27.8868 20.9238 28.1982 19.933C28.5097 18.9422 28.6654 17.8039 28.6654 16.5182C28.6654 14.7181 28.0653 13.1601 26.8652 11.8441C27.4273 10.4676 27.3665 8.92465 26.6829 7.21536C26.2576 7.07922 25.6424 7.16241 24.8372 7.46494C24.0321 7.76748 23.3333 8.10026 22.7409 8.4633L21.875 9.00785C20.4622 8.61456 19.0039 8.41792 17.5 8.41792C15.9961 8.41792 14.5378 8.61456 13.125 9.00785C12.8819 8.84146 12.5591 8.63725 12.1566 8.39523C11.754 8.1532 11.1198 7.86202 10.2539 7.52167C9.38802 7.18132 8.7424 7.07922 8.31706 7.21536C7.63346 8.92465 7.5727 10.4676 8.13477 11.8441C6.93468 13.1601 6.33464 14.7181 6.33464 16.5182C6.33464 17.8039 6.49034 18.9384 6.80176 19.9216C7.11317 20.9049 7.51194 21.699 7.99805 22.3041C8.48416 22.9091 9.0956 23.4159 9.83236 23.8243C10.5691 24.2327 11.2831 24.5277 11.9743 24.7092C12.6655 24.8907 13.444 25.0268 14.3099 25.1176C13.7174 25.6622 13.3453 26.4412 13.1934 27.4547C12.8743 27.6059 12.5326 27.7194 12.168 27.795C11.8034 27.8706 11.3704 27.9085 10.8691 27.9085C10.3678 27.9085 9.87033 27.7458 9.37663 27.4206C8.88292 27.0954 8.46137 26.6227 8.11198 26.0025C7.82335 25.5185 7.45497 25.1252 7.00684 24.8226C6.5587 24.5201 6.18273 24.3386 5.87891 24.2781L5.42318 24.21C5.10417 24.21 4.8839 24.2441 4.76237 24.3121C4.64084 24.3802 4.60286 24.4672 4.64844 24.5731C4.69401 24.6789 4.76237 24.7848 4.85352 24.8907C4.94466 24.9966 5.0434 25.0874 5.14974 25.163L5.30925 25.2764C5.64345 25.4277 5.97385 25.7151 6.30046 26.1387C6.62706 26.5622 6.86632 26.9479 7.01823 27.2958L7.24609 27.8177C7.44358 28.3925 7.77778 28.8576 8.2487 29.2131C8.71962 29.5686 9.22852 29.7955 9.77539 29.8938C10.3223 29.9921 10.8502 30.0451 11.359 30.0526C11.8679 30.0602 12.2895 30.0337 12.6237 29.9732L13.1478 29.8825C13.1478 30.4573 13.1516 31.1266 13.1592 31.8905C13.1668 32.6544 13.1706 33.0666 13.1706 33.1271C13.1706 33.3994 13.0718 33.6263 12.8743 33.8078C12.6769 33.9893 12.373 34.0423 11.9629 33.9666C8.43859 32.8019 5.56369 30.7031 3.33822 27.6702C1.11274 24.6373 0 21.2225 0 17.4258C0 14.2643 0.782335 11.3487 2.34701 8.67885C3.91168 6.00902 6.03461 3.89508 8.71582 2.33705C11.397 0.779017 14.3251 0 17.5 0ZM6.63086 25.0268C6.67643 24.921 6.62326 24.8302 6.47135 24.7546C6.31944 24.7092 6.2207 24.7243 6.17513 24.8C6.12956 24.9058 6.18273 24.9966 6.33464 25.0722C6.47135 25.163 6.5701 25.1479 6.63086 25.0268ZM7.33724 25.7983C7.44358 25.7227 7.42839 25.6017 7.29167 25.4353C7.13976 25.2991 7.01823 25.2764 6.92708 25.3672C6.82075 25.4428 6.83594 25.5638 6.97266 25.7302C7.12457 25.8815 7.24609 25.9042 7.33724 25.7983ZM8.02083 26.8193C8.15755 26.7135 8.15755 26.5698 8.02083 26.3882C7.89931 26.1916 7.77018 26.1462 7.63346 26.2521C7.49675 26.3277 7.49675 26.4639 7.63346 26.6605C7.77018 26.8572 7.89931 26.9101 8.02083 26.8193ZM8.97787 27.7723C9.09939 27.6513 9.06901 27.5076 8.88672 27.3412C8.70443 27.1597 8.55252 27.137 8.43099 27.2731C8.29427 27.3942 8.32465 27.5379 8.52214 27.7042C8.70443 27.8858 8.85634 27.9085 8.97787 27.7723ZM10.2767 28.3396C10.3223 28.1732 10.2235 28.0522 9.98047 27.9765C9.7526 27.916 9.60829 27.969 9.54753 28.1354C9.48676 28.3017 9.5855 28.4152 9.84375 28.4757C10.0716 28.5665 10.2159 28.5211 10.2767 28.3396ZM11.7122 28.453C11.7122 28.2564 11.5831 28.1732 11.3249 28.2034C11.0818 28.2034 10.9603 28.2866 10.9603 28.453C10.9603 28.6497 11.0894 28.7329 11.3477 28.7026C11.5907 28.7026 11.7122 28.6194 11.7122 28.453ZM13.0339 28.2261C13.0035 28.0597 12.8668 27.9917 12.6237 28.0219C12.3806 28.0673 12.2743 28.1807 12.3047 28.3623C12.3351 28.5438 12.4718 28.6043 12.7148 28.5438C12.9579 28.4833 13.0642 28.3774 13.0339 28.2261Z" fill="#DDDDDD"/>
</svg>
