<svg width="33" height="32" viewBox="0 0 33 32" fill="none" xmlns="http://www.w3.org/2000/svg">
<g id="Group">
<path id="Vector" fill-rule="evenodd" clip-rule="evenodd" d="M0.5 16C0.5 18.1012 0.913852 20.1817 1.71793 22.1229C2.522 24.0641 3.70055 25.828 5.18629 27.3137C6.67203 28.7994 8.43586 29.978 10.3771 30.7821C12.3183 31.5861 14.3989 32 16.5 32C18.6012 32 20.6817 31.5861 22.6229 30.7821C24.5641 29.978 26.328 28.7994 27.8137 27.3137C29.2994 25.828 30.478 24.0641 31.2821 22.1229C32.0861 20.1817 32.5 18.1012 32.5 16C32.5 11.7565 30.8143 7.68687 27.8137 4.68629C24.8131 1.68571 20.7435 0 16.5 0C12.2565 0 8.18687 1.68571 5.18629 4.68629C2.18571 7.68687 0.5 11.7565 0.5 16ZM30.6176 16C30.6176 19.7442 29.1303 23.3351 26.4827 25.9827C23.8351 28.6303 20.2442 30.1176 16.5 30.1176C12.7558 30.1176 9.16489 28.6303 6.51732 25.9827C3.86974 23.3351 2.38235 19.7442 2.38235 16C2.38235 12.2558 3.86974 8.66489 6.51732 6.01732C9.16489 3.36974 12.7558 1.88235 16.5 1.88235C20.2442 1.88235 23.8351 3.36974 26.4827 6.01732C29.1303 8.66489 30.6176 12.2558 30.6176 16Z" fill="#DDDDDD"/>
<path id="Vector_2" fill-rule="evenodd" clip-rule="evenodd" d="M9.91187 16C9.91187 24.2748 12.6262 31.0588 16.5001 31.0588C20.374 31.0588 23.0883 24.2748 23.0883 16C23.0883 7.72516 20.374 0.941162 16.5001 0.941162C12.6262 0.941162 9.91187 7.72516 9.91187 16ZM21.206 16C21.206 23.3205 18.8625 29.1765 16.5001 29.1765C14.1377 29.1765 11.7942 23.3205 11.7942 16C11.7942 8.67952 14.1377 2.82352 16.5001 2.82352C18.8625 2.82352 21.206 8.67952 21.206 16Z" fill="#DDDDDD"/>
<path id="Vector_3" d="M4.70704 7.17551L5.96822 5.77881C6.16901 5.95951 6.38422 6.13583 6.61387 6.30775C9.09481 8.16751 13.0101 9.30069 17.2774 9.30069C20.916 9.30069 24.3118 8.4781 26.7927 7.06069C27.3643 6.73717 27.9043 6.36095 28.4059 5.93693L29.6294 7.36751C29.0672 7.84814 28.4335 8.28987 27.7282 8.69269C24.948 10.2833 21.2303 11.183 17.2774 11.183C12.628 11.183 8.31363 9.93504 5.48446 7.81363C5.21593 7.61196 4.95654 7.4003 4.70704 7.17551ZM4.70704 24.847L5.96822 26.24C6.16901 26.058 6.38422 25.8823 6.61387 25.7129C9.09481 23.8532 13.0101 22.72 17.2774 22.72C20.916 22.72 24.3118 23.5407 26.7927 24.96C27.3976 25.3076 27.9353 25.6816 28.4059 26.0819L29.6294 24.6513C29.0383 24.1513 28.4019 23.7076 27.7282 23.3261C24.948 21.7374 21.2303 20.8376 17.2774 20.8376C12.628 20.8376 8.31363 22.0856 5.48446 24.2052C5.20838 24.4122 4.94924 24.6274 4.70704 24.847ZM1.44116 16.9412V15.0588H31.5588V16.9412H1.44116Z" fill="#DDDDDD"/>
</g>
</svg>
