<svg width="35" height="26" viewBox="0 0 35 26" fill="none" xmlns="http://www.w3.org/2000/svg">
<path d="M13.8869 17.6032L23.3395 12.6429L13.8869 7.62302V17.6032ZM17.5 0.5C19.6874 0.5 21.7999 0.529762 23.8375 0.589286C25.8752 0.64881 27.3692 0.71164 28.3197 0.777778L29.7454 0.857143C29.7584 0.857143 29.8691 0.867063 30.0774 0.886905C30.2857 0.906746 30.4355 0.926587 30.5266 0.946429C30.6178 0.96627 30.7707 0.996032 30.9856 1.03571C31.2004 1.0754 31.3859 1.12831 31.5422 1.19444C31.6984 1.26058 31.8807 1.34656 32.089 1.45238C32.2974 1.5582 32.4992 1.68717 32.6945 1.83929C32.8898 1.9914 33.0786 2.16667 33.2608 2.36508C33.339 2.44444 33.4399 2.5668 33.5636 2.73214C33.6872 2.89749 33.876 3.28439 34.1299 3.89286C34.3838 4.50132 34.5563 5.16931 34.6475 5.89683C34.7516 6.74339 34.833 7.64616 34.8916 8.60516C34.9502 9.56415 34.986 10.3148 34.999 10.8571V14.3492C35.012 16.2672 34.8949 18.1852 34.6475 20.1032C34.5563 20.8307 34.3936 21.4888 34.1592 22.0774C33.9249 22.666 33.7165 23.0728 33.5343 23.2976L33.2608 23.6349C33.0786 23.8333 32.8898 24.0086 32.6945 24.1607C32.4992 24.3128 32.2974 24.4385 32.089 24.5377C31.8807 24.6369 31.6984 24.7196 31.5422 24.7857C31.3859 24.8519 31.2004 24.9048 30.9856 24.9444C30.7707 24.9841 30.6145 25.0139 30.5169 25.0337C30.4192 25.0536 30.2695 25.0734 30.0677 25.0933C29.8658 25.1131 29.7584 25.123 29.7454 25.123C26.4774 25.3743 22.3956 25.5 17.5 25.5C14.8048 25.4735 12.4645 25.4306 10.4789 25.371C8.49334 25.3115 7.18808 25.2619 6.56311 25.2222L5.60613 25.1429L4.90305 25.0635C4.43432 24.9974 4.07952 24.9312 3.83865 24.8651C3.59778 24.7989 3.26577 24.6601 2.84261 24.4484C2.41946 24.2368 2.05164 23.9656 1.73916 23.6349C1.66104 23.5556 1.56013 23.4332 1.43644 23.2679C1.31275 23.1025 1.12396 22.7156 0.870069 22.1071C0.616177 21.4987 0.44366 20.8307 0.352519 20.1032C0.248359 19.2566 0.166983 18.3538 0.108392 17.3948C0.0498019 16.4358 0.0139966 15.6852 0.000976508 15.1429V11.6508C-0.0120436 9.7328 0.105137 7.81482 0.352519 5.89683C0.44366 5.16931 0.606411 4.51124 0.840773 3.92262C1.07514 3.33399 1.28346 2.92725 1.46574 2.70238L1.73916 2.36508C1.92144 2.16667 2.11023 1.9914 2.30554 1.83929C2.50084 1.68717 2.70265 1.5582 2.91097 1.45238C3.11929 1.34656 3.30157 1.26058 3.45781 1.19444C3.61406 1.12831 3.79959 1.0754 4.01442 1.03571C4.22926 0.996032 4.38224 0.96627 4.47338 0.946429C4.56452 0.926587 4.71426 0.906746 4.92258 0.886905C5.1309 0.867063 5.24157 0.857143 5.25459 0.857143C8.52264 0.619048 12.6044 0.5 17.5 0.5Z" fill="#DDDDDD"/>
</svg>
