<?xml version="1.0" encoding="UTF-8"?>
<svg id="_レイヤー_1" data-name="レイヤー_1" xmlns="http://www.w3.org/2000/svg" version="1.1" viewBox="0 0 1476 243">
  <!-- Generator: Adobe Illustrator 29.5.0, SVG Export Plug-In . SVG Version: 2.1.0 Build 137)  -->
  <defs>
    <style>
      .st0 {
        fill: #ddd;
      }
    </style>
  </defs>
  <path class="st0" d="M73.12,71.43c2.29,0,3.23-.71,3.94-2.9,7.1-22.05,14.21-44.09,21.32-66.14C98.87.86,99.95.02,101.4,0c1.45-.02,2.61.86,3.11,2.4,5.52,16.87,20.04,61.22,21.79,66.53.48,1.46,1.59,2.25,3.12,2.26,3.11.02,61.26.13,69.92.15,1.63,0,2.81.79,3.27,2.18.47,1.39-.01,2.73-1.34,3.69-18.68,13.47-37.35,26.94-56.03,40.4-.79.57-1.71,1.08-1.92,2.1-.15.73-.2,1.57.02,2.27,2.42,7.61,16.96,52.22,21.74,66.92.5,1.55.1,2.89-1.12,3.76-1.19.85-2.56.79-3.92-.19-18.98-13.63-37.96-27.26-56.93-40.9-1.62-1.17-2.85-1.17-4.47,0-18.56,13.55-37.13,27.09-55.66,40.67-2,1.46-3.95.76-4.82-.48-.63-.9-.73-1.86-.38-2.91,2.28-6.92,16.76-51.18,21.75-66.39.55-1.68.1-2.95-1.42-4.05-18.81-13.69-37.63-27.39-56.45-41.08-1.56-1.14-2.06-2.59-1.36-4.09.57-1.22,1.54-1.85,2.89-1.86,2.09,0,4.18,0,6.28,0,9.63,0,59.17.03,63.64.05ZM59.64,89.97c-.85,0-1.58.23-2.2.8-1.57,1.44-1.38,3.77.43,5.09,7.25,5.28,14.51,10.56,21.76,15.84,1.46,1.07,1.86,2.27,1.31,3.94-2.76,8.45-5.53,16.89-8.29,25.34-.52,1.6-.14,2.97,1.07,3.84,1.23.89,2.63.84,3.98-.15,7.03-5.13,14.06-10.27,21.09-15.4,1.82-1.33,2.9-1.32,4.75,0,7.21,5.18,14.41,10.36,21.62,15.54,1.38.99,2.77,1.04,3.99.16,1.21-.88,1.6-2.25,1.08-3.84-2.77-8.52-5.54-17.04-8.32-25.56-.59-1.82-.21-3.01,1.34-4.12,7.22-5.21,14.44-10.41,21.65-15.62,1.35-.97,1.8-2.3,1.31-3.76-.46-1.37-1.61-2.13-3.21-2.14-2.65-.02-20.41-.07-26.64-.07-1.93,0-2.91-.7-3.51-2.53-2.77-8.44-5.53-16.89-8.32-25.33-.16-.47-.38-.97-.7-1.34-1.62-1.88-4.68-1.24-5.45,1.15-2.77,8.55-5.52,17.1-8.28,25.65-.57,1.76-1.62,2.53-3.46,2.53-4.48,0-22.48,0-27.01,0Z"/>
  <path class="st0" d="M233.59,82.48c1.66,0,2.8.76,3.26,2.17.47,1.42,0,2.7-1.34,3.68-13.53,9.76-51.24,36.95-56.56,40.79-1.51,1.09-1.93,2.33-1.34,4.13,2.58,7.94,17.09,52.51,21.75,66.85.47,1.45.06,2.79-1.09,3.64-1.15.85-2.55.86-3.8-.04-6.58-4.72-13.16-9.44-19.73-14.17-.18-.13-.35-.34-.41-.54-.77-2.63-19.73-61.66-20.94-65.25-.19-.56-.08-.8.36-1.12,14.19-10.22,54.1-39.07,54.6-39.62.42-.46.84-.62,1.45-.61,3.97.03,19.83.08,23.79.09ZM138.73,13.47c-.5-1.52-1.6-2.33-3.07-2.33-1.42,0-2.55.85-3.02,2.3-2.43,7.53-4.85,15.06-7.26,22.6-.09.3-.09.68,0,.97,2.64,8.13,5.31,16.24,7.94,24.37.21.66.53.82,1.18.82,5.18-.01,18.55.03,20.2.03-.45-1.38-11.06-33.8-15.97-48.77ZM117.74,173.22c-5.45-3.91-10.9-7.82-16.33-11.75-.45-.32-.7-.19-1.07.08-6.71,4.91-13.42,9.81-20.12,14.73-.32.24-.62.63-.74,1.01-1.47,4.42-6.46,19.64-7.48,22.83-.37,1.15-.15,2.21.71,3.1,1.25,1.3,2.85,1.37,4.46.19,11.01-8.04,38.25-27.93,40.94-29.9-.17-.14-.26-.22-.36-.29Z"/>
  <path class="st0" d="M269.27,94.09c1.71,0,2.85.76,3.32,2.19.47,1.44-.01,2.71-1.41,3.72-14.63,10.55-52.31,37.72-56.51,40.75-1.47,1.06-1.91,2.35-1.37,4,5.78,17.76,20.29,62.37,21.76,66.92.49,1.53.1,2.83-1.08,3.69-1.18.86-2.54.84-3.85-.1-7.05-5.06-14.11-10.12-21.15-15.2-.26-.18-.44-.54-.54-.86-.87-2.75-20.03-62.01-20.84-64.38-.18-.51-.06-.76.36-1.06,17.56-12.65,53.3-38.36,53.53-38.63.81-.95,1.8-1.13,3.02-1.1,3.99.09,20.49.06,24.74.06ZM174.53,25.24c-.52-1.6-1.64-2.52-3.1-2.52-1.47,0-2.58.9-3.1,2.51-2.61,8.09-5.23,16.17-7.82,24.27-.13.4-.14.92-.01,1.32,1.14,3.59,2.34,7.15,3.48,10.74.17.54.43.69.98.69,6.67-.01,21.06.01,21.67.01-.1-.31-8.16-24.95-12.11-37.02ZM125.6,179.24c-3.04,2.22-6.09,4.44-9.12,6.68-.26.2-.47.55-.57.87-1.3,3.92-6.72,20.44-8.13,24.78-.44,1.36-.18,2.55.91,3.51,1.19,1.05,2.7,1.04,4.14,0,10.27-7.5,20.54-15,30.81-22.5.15-.11.28-.24.47-.41-6.11-4.39-12.17-8.74-18.23-13.1-.12.07-.2.11-.28.17Z"/>
  <path class="st0" d="M391.5,126h-99c-2.49,0-4.5-2.01-4.5-4.5v-27c0-2.49,2.01-4.5,4.5-4.5h99c2.49,0,4.5,2.01,4.5,4.5v27c0,2.49-2.01,4.5-4.5,4.5ZM396,175.5v-27c0-2.49-2.01-4.5-4.5-4.5h-99c-2.49,0-4.5,2.01-4.5,4.5v27c0,2.49,2.01,4.5,4.5,4.5h99c2.49,0,4.5-2.01,4.5-4.5ZM396,67.5v-27c0-2.49-2.01-4.5-4.5-4.5h-99c-2.49,0-4.5,2.01-4.5,4.5v27c0,2.49,2.01,4.5,4.5,4.5h99c2.49,0,4.5-2.01,4.5-4.5ZM720,94.5v-27c0-2.49-2.01-4.5-4.5-4.5h0c-2.49,0-4.5,2.01-4.5,4.5v27c0,2.49,2.01,4.5,4.5,4.5h0c2.49,0,4.5-2.01,4.5-4.5ZM738,94.5v-27c0-2.49-2.01-4.5-4.5-4.5h0c-2.49,0-4.5,2.01-4.5,4.5v27c0,2.49,2.01,4.5,4.5,4.5h0c2.49,0,4.5-2.01,4.5-4.5ZM513,121.5V40.5c0-2.49-2.01-4.5-4.5-4.5h-27c-2.49,0-4.5,2.01-4.5,4.5v81c0,2.49,2.01,4.5,4.5,4.5h27c2.49,0,4.5-2.01,4.5-4.5ZM697.5,63h-9c-2.49,0-4.5-2.01-4.5-4.5v-18c0-2.49-2.01-4.5-4.5-4.5h-27c-2.49,0-4.5,2.01-4.5,4.5v18c0,2.49-2.01,4.5-4.5,4.5h-45c-2.49,0-4.5,2.01-4.5,4.5v27c0,2.49,2.01,4.5,4.5,4.5h45c2.49,0,4.5,2.01,4.5,4.5v72c0,2.49,2.01,4.5,4.5,4.5h27c2.49,0,4.5-2.01,4.5-4.5v-72c0-2.49,2.01-4.5,4.5-4.5h9c2.49,0,4.5-2.01,4.5-4.5v-27c0-2.49-2.01-4.5-4.5-4.5ZM459,121.5V40.5c0-2.49-2.01-4.5-4.5-4.5h-27c-2.49,0-4.5,2.01-4.5,4.5v81c0,2.49,2.01,4.5,4.5,4.5h27c2.49,0,4.5-2.01,4.5-4.5ZM630,175.5v-54c0-2.49-2.01-4.5-4.5-4.5h-27c-2.49,0-4.5,2.01-4.5,4.5v54c0,2.49,2.01,4.5,4.5,4.5h27c2.49,0,4.5-2.01,4.5-4.5ZM738,175.5v-54c0-2.49-2.01-4.5-4.5-4.5h-27c-2.49,0-4.5,2.01-4.5,4.5v54c0,2.49,2.01,4.5,4.5,4.5h27c2.49,0,4.5-2.01,4.5-4.5ZM531,40.5v99c0,2.49-2.01,4.5-4.5,4.5h-9c-2.49,0-4.5,2.01-4.5,4.5v27c0,2.49,2.01,4.5,4.5,4.5h45c2.49,0,4.5-2.01,4.5-4.5V40.5c0-2.49-2.01-4.5-4.5-4.5h-27c-2.49,0-4.5,2.01-4.5,4.5ZM837,121.5v-27c0-2.49-2.01-4.5-4.5-4.5h-63c-2.49,0-4.5,2.01-4.5,4.5v27c0,2.49,2.01,4.5,4.5,4.5h63c2.49,0,4.5-2.01,4.5-4.5ZM837,67.5v-27c0-2.49-2.01-4.5-4.5-4.5h-63c-2.49,0-4.5,2.01-4.5,4.5v27c0,2.49,2.01,4.5,4.5,4.5h63c2.49,0,4.5-2.01,4.5-4.5ZM765,148.5v27c0,2.49,2.01,4.5,4.5,4.5h117c2.49,0,4.5-2.01,4.5-4.5v-45c0-2.49-2.01-4.5-4.5-4.5h-27c-2.49,0-4.5,2.01-4.5,4.5v9c0,2.49-2.01,4.5-4.5,4.5h-81c-2.49,0-4.5,2.01-4.5,4.5ZM288,198v36h9v-27h9v27h9v-27h9v27h9v-36h-45ZM342,234h9v-36h-9v36ZM621,234h9v-36h-9v36ZM396,216h9v-9h18v-9h-27v18ZM414,225h-18v9h27v-18h-9v9ZM549,216h9v-9h18v-9h-27v18ZM567,225h-18v9h27v-18h-9v9ZM450,225h-9v-27h-9v36h27v-36h-9v27ZM495,216v-9h-9v9h9ZM495,225h-9v-9h-9v-9h9v-9h-18v27h9v9h27v-18h-9v9ZM540,198v36h-27v-36h27ZM531,207h-9v18h9v-18ZM603,207h-9v-9h-9v36h9v-18h9v18h9v-36h-9v9ZM360,198v9h9v27h9v-27h9v-9h-27ZM1278,67.5v-27c0-2.49-2.01-4.5-4.5-4.5h-63c-2.49,0-4.5,2.01-4.5,4.5v27c0,2.49,2.01,4.5,4.5,4.5h63c2.49,0,4.5-2.01,4.5-4.5ZM1296,67.5v-27c0-2.49-2.01-4.5-4.5-4.5h0c-2.49,0-4.5,2.01-4.5,4.5v27c0,2.49,2.01,4.5,4.5,4.5h0c2.49,0,4.5-2.01,4.5-4.5ZM1314,67.5v-27c0-2.49-2.01-4.5-4.5-4.5h0c-2.49,0-4.5,2.01-4.5,4.5v27c0,2.49,2.01,4.5,4.5,4.5h0c2.49,0,4.5-2.01,4.5-4.5ZM1278,121.5v-27c0-2.49-2.01-4.5-4.5-4.5h-63c-2.49,0-4.5,2.01-4.5,4.5v27c0,2.49,2.01,4.5,4.5,4.5h63c2.49,0,4.5-2.01,4.5-4.5ZM1206,148.5v27c0,2.49,2.01,4.5,4.5,4.5h117c2.49,0,4.5-2.01,4.5-4.5v-45c0-2.49-2.01-4.5-4.5-4.5h-27c-2.49,0-4.5,2.01-4.5,4.5v9c0,2.49-2.01,4.5-4.5,4.5h-81c-2.49,0-4.5,2.01-4.5,4.5ZM918,40.5v27c0,2.49,2.01,4.5,4.5,4.5h81c2.49,0,4.5,2.01,4.5,4.5v9c0,2.49-2.01,4.5-4.5,4.5h-81c-2.49,0-4.5,2.01-4.5,4.5v81c0,2.49,2.01,4.5,4.5,4.5h27c2.49,0,4.5-2.01,4.5-4.5v-45c0-2.49,2.01-4.5,4.5-4.5h9c2.49,0,4.5,2.01,4.5,4.5v45c0,2.49,2.01,4.5,4.5,4.5h63c2.49,0,4.5-2.01,4.5-4.5v-27c0-2.49-2.01-4.5-4.5-4.5h-27c-2.49,0-4.5-2.01-4.5-4.5v-9c0-2.49,2.01-4.5,4.5-4.5h27c2.49,0,4.5-2.01,4.5-4.5V40.5c0-2.49-2.01-4.5-4.5-4.5h-117c-2.49,0-4.5,2.01-4.5,4.5ZM1075.5,126h27c2.49,0,4.5-2.01,4.5-4.5v-45c0-2.49,2.01-4.5,4.5-4.5h27c2.49,0,4.5,2.01,4.5,4.5v9c0,2.49-2.01,4.5-4.5,4.5h-9c-2.49,0-4.5,2.01-4.5,4.5v27c0,2.49,2.01,4.5,4.5,4.5h9c2.49,0,4.5,2.01,4.5,4.5v45c0,2.49,2.01,4.5,4.5,4.5h27c2.49,0,4.5-2.01,4.5-4.5V40.5c0-2.49-2.01-4.5-4.5-4.5h-99c-2.49,0-4.5,2.01-4.5,4.5v81c0,2.49,2.01,4.5,4.5,4.5ZM1471.5,63h-9c-2.49,0-4.5-2.01-4.5-4.5v-18c0-2.49-2.01-4.5-4.5-4.5h-27c-2.49,0-4.5,2.01-4.5,4.5v18c0,2.49-2.01,4.5-4.5,4.5h-63c-2.49,0-4.5,2.01-4.5,4.5v27c0,2.49,2.01,4.5,4.5,4.5h63c2.49,0,4.5,2.01,4.5,4.5v72c0,2.49,2.01,4.5,4.5,4.5h27c2.49,0,4.5-2.01,4.5-4.5v-72c0-2.49,2.01-4.5,4.5-4.5h9c2.49,0,4.5-2.01,4.5-4.5v-27c0-2.49-2.01-4.5-4.5-4.5ZM1363.5,144h-9c-2.49,0-4.5,2.01-4.5,4.5v27c0,2.49,2.01,4.5,4.5,4.5h45c2.49,0,4.5-2.01,4.5-4.5v-63c0-2.49-2.01-4.5-4.5-4.5h-27c-2.49,0-4.5,2.01-4.5,4.5v27c0,2.49-2.01,4.5-4.5,4.5ZM666,198v18h9v-9h18v-9h-27ZM684,225h-18v9h27v-18h-9v9ZM702,198v9h9v27h9v-27h9v-9h-27ZM810,234h9v-36h-9v36ZM855,198v36h-27v-36h27ZM846,207h-9v18h9v-18ZM738,198v36h27v-36h-9v27h-9v-27h-9ZM774,198v36h18v-9h-9v-18h9v-9h-18ZM801,207h-9v18h9v-18ZM873,207v9h9v18h9v-9h9v9h9v-18h9v-9h-18v-9h-9v9h-18ZM918,207v9h9v18h9v-9h9v9h9v-18h9v-9h-18v-9h-9v9h-18ZM963,207v9h9v18h9v-9h9v9h9v-18h9v-9h-18v-9h-9v9h-18ZM657,234h-18v9h18v-9Z"/>
</svg>